<mxfile host="app.diagrams.net" modified="2024-03-28T04:23:06.441Z" agent="Mozilla/5.0 (Windows NT 10.0; Win64; x64; rv:124.0) Gecko/20100101 Firefox/124.0" version="24.2.0" etag="TTxh8-XqgBUenNxYEW4i" type="github">
  <diagram name="Page-1" id="UnA2bDf60VkfSyirthU8">
    <mxGraphModel>
      <root>
        <mxCell id="0" />
        <mxCell id="1" parent="0" />
      </root>
    </mxGraphModel>
  </diagram>
</mxfile>
